<svg id="visual" viewBox="0 0 960 540" width="960" height="540" xmlns="http://www.w3.org/2000/svg" xmlns:xlink="http://www.w3.org/1999/xlink" version="1.1"><rect x="0" y="0" width="960" height="540" fill="#121117"></rect><path d="M0 235L48 235L48 226L96 226L96 238L144 238L144 243L192 243L192 212L240 212L240 177L288 177L288 231L336 231L336 232L384 232L384 222L432 222L432 162L480 162L480 190L528 190L528 177L576 177L576 189L624 189L624 250L672 250L672 171L720 171L720 142L768 142L768 180L816 180L816 155L864 155L864 158L912 158L912 252L960 252L960 211L960 541L960 541L912 541L912 541L864 541L864 541L816 541L816 541L768 541L768 541L720 541L720 541L672 541L672 541L624 541L624 541L576 541L576 541L528 541L528 541L480 541L480 541L432 541L432 541L384 541L384 541L336 541L336 541L288 541L288 541L240 541L240 541L192 541L192 541L144 541L144 541L96 541L96 541L48 541L48 541L0 541Z" fill="#24232c"></path><path d="M0 264L48 264L48 245L96 245L96 267L144 267L144 255L192 255L192 214L240 214L240 178L288 178L288 207L336 207L336 234L384 234L384 211L432 211L432 181L480 181L480 246L528 246L528 244L576 244L576 195L624 195L624 279L672 279L672 278L720 278L720 211L768 211L768 248L816 248L816 231L864 231L864 240L912 240L912 199L960 199L960 253L960 541L960 541L912 541L912 541L864 541L864 541L816 541L816 541L768 541L768 541L720 541L720 541L672 541L672 541L624 541L624 541L576 541L576 541L528 541L528 541L480 541L480 541L432 541L432 541L384 541L384 541L336 541L336 541L288 541L288 541L240 541L240 541L192 541L192 541L144 541L144 541L96 541L96 541L48 541L48 541L0 541Z" fill="#22212a"></path><path d="M0 244L48 244L48 220L96 220L96 241L144 241L144 209L192 209L192 225L240 225L240 283L288 283L288 232L336 232L336 227L384 227L384 257L432 257L432 239L480 239L480 258L528 258L528 220L576 220L576 232L624 232L624 270L672 270L672 257L720 257L720 254L768 254L768 283L816 283L816 212L864 212L864 228L912 228L912 211L960 211L960 270L960 541L960 541L912 541L912 541L864 541L864 541L816 541L816 541L768 541L768 541L720 541L720 541L672 541L672 541L624 541L624 541L576 541L576 541L528 541L528 541L480 541L480 541L432 541L432 541L384 541L384 541L336 541L336 541L288 541L288 541L240 541L240 541L192 541L192 541L144 541L144 541L96 541L96 541L48 541L48 541L0 541Z" fill="#202028"></path><path d="M0 322L48 322L48 268L96 268L96 270L144 270L144 317L192 317L192 257L240 257L240 263L288 263L288 320L336 320L336 283L384 283L384 291L432 291L432 293L480 293L480 333L528 333L528 278L576 278L576 333L624 333L624 307L672 307L672 309L720 309L720 300L768 300L768 245L816 245L816 331L864 331L864 303L912 303L912 298L960 298L960 263L960 541L960 541L912 541L912 541L864 541L864 541L816 541L816 541L768 541L768 541L720 541L720 541L672 541L672 541L624 541L624 541L576 541L576 541L528 541L528 541L480 541L480 541L432 541L432 541L384 541L384 541L336 541L336 541L288 541L288 541L240 541L240 541L192 541L192 541L144 541L144 541L96 541L96 541L48 541L48 541L0 541Z" fill="#1f1e26"></path><path d="M0 312L48 312L48 351L96 351L96 305L144 305L144 336L192 336L192 295L240 295L240 323L288 323L288 337L336 337L336 289L384 289L384 318L432 318L432 323L480 323L480 321L528 321L528 297L576 297L576 315L624 315L624 317L672 317L672 334L720 334L720 346L768 346L768 286L816 286L816 288L864 288L864 328L912 328L912 301L960 301L960 356L960 541L960 541L912 541L912 541L864 541L864 541L816 541L816 541L768 541L768 541L720 541L720 541L672 541L672 541L624 541L624 541L576 541L576 541L528 541L528 541L480 541L480 541L432 541L432 541L384 541L384 541L336 541L336 541L288 541L288 541L240 541L240 541L192 541L192 541L144 541L144 541L96 541L96 541L48 541L48 541L0 541Z" fill="#1d1d24"></path><path d="M0 322L48 322L48 330L96 330L96 327L144 327L144 384L192 384L192 354L240 354L240 369L288 369L288 330L336 330L336 380L384 380L384 380L432 380L432 363L480 363L480 354L528 354L528 331L576 331L576 328L624 328L624 348L672 348L672 341L720 341L720 328L768 328L768 324L816 324L816 362L864 362L864 356L912 356L912 319L960 319L960 351L960 541L960 541L912 541L912 541L864 541L864 541L816 541L816 541L768 541L768 541L720 541L720 541L672 541L672 541L624 541L624 541L576 541L576 541L528 541L528 541L480 541L480 541L432 541L432 541L384 541L384 541L336 541L336 541L288 541L288 541L240 541L240 541L192 541L192 541L144 541L144 541L96 541L96 541L48 541L48 541L0 541Z" fill="#1b1b22"></path><path d="M0 356L48 356L48 388L96 388L96 397L144 397L144 356L192 356L192 350L240 350L240 363L288 363L288 380L336 380L336 349L384 349L384 401L432 401L432 395L480 395L480 405L528 405L528 372L576 372L576 349L624 349L624 399L672 399L672 378L720 378L720 378L768 378L768 406L816 406L816 394L864 394L864 345L912 345L912 390L960 390L960 352L960 541L960 541L912 541L912 541L864 541L864 541L816 541L816 541L768 541L768 541L720 541L720 541L672 541L672 541L624 541L624 541L576 541L576 541L528 541L528 541L480 541L480 541L432 541L432 541L384 541L384 541L336 541L336 541L288 541L288 541L240 541L240 541L192 541L192 541L144 541L144 541L96 541L96 541L48 541L48 541L0 541Z" fill="#191920"></path><path d="M0 420L48 420L48 406L96 406L96 417L144 417L144 412L192 412L192 412L240 412L240 420L288 420L288 388L336 388L336 393L384 393L384 401L432 401L432 386L480 386L480 411L528 411L528 431L576 431L576 410L624 410L624 422L672 422L672 411L720 411L720 412L768 412L768 434L816 434L816 396L864 396L864 386L912 386L912 388L960 388L960 379L960 541L960 541L912 541L912 541L864 541L864 541L816 541L816 541L768 541L768 541L720 541L720 541L672 541L672 541L624 541L624 541L576 541L576 541L528 541L528 541L480 541L480 541L432 541L432 541L384 541L384 541L336 541L336 541L288 541L288 541L240 541L240 541L192 541L192 541L144 541L144 541L96 541L96 541L48 541L48 541L0 541Z" fill="#18181e"></path><path d="M0 427L48 427L48 437L96 437L96 451L144 451L144 455L192 455L192 438L240 438L240 438L288 438L288 442L336 442L336 429L384 429L384 432L432 432L432 420L480 420L480 444L528 444L528 431L576 431L576 415L624 415L624 458L672 458L672 439L720 439L720 432L768 432L768 416L816 416L816 435L864 435L864 435L912 435L912 457L960 457L960 434L960 541L960 541L912 541L912 541L864 541L864 541L816 541L816 541L768 541L768 541L720 541L720 541L672 541L672 541L624 541L624 541L576 541L576 541L528 541L528 541L480 541L480 541L432 541L432 541L384 541L384 541L336 541L336 541L288 541L288 541L240 541L240 541L192 541L192 541L144 541L144 541L96 541L96 541L48 541L48 541L0 541Z" fill="#16161d"></path><path d="M0 458L48 458L48 456L96 456L96 456L144 456L144 475L192 475L192 478L240 478L240 457L288 457L288 448L336 448L336 452L384 452L384 449L432 449L432 470L480 470L480 481L528 481L528 453L576 453L576 474L624 474L624 468L672 468L672 463L720 463L720 479L768 479L768 475L816 475L816 479L864 479L864 473L912 473L912 453L960 453L960 471L960 541L960 541L912 541L912 541L864 541L864 541L816 541L816 541L768 541L768 541L720 541L720 541L672 541L672 541L624 541L624 541L576 541L576 541L528 541L528 541L480 541L480 541L432 541L432 541L384 541L384 541L336 541L336 541L288 541L288 541L240 541L240 541L192 541L192 541L144 541L144 541L96 541L96 541L48 541L48 541L0 541Z" fill="#15141b"></path><path d="M0 496L48 496L48 491L96 491L96 495L144 495L144 501L192 501L192 501L240 501L240 491L288 491L288 502L336 502L336 483L384 483L384 483L432 483L432 498L480 498L480 490L528 490L528 500L576 500L576 504L624 504L624 482L672 482L672 484L720 484L720 504L768 504L768 494L816 494L816 502L864 502L864 487L912 487L912 497L960 497L960 484L960 541L960 541L912 541L912 541L864 541L864 541L816 541L816 541L768 541L768 541L720 541L720 541L672 541L672 541L624 541L624 541L576 541L576 541L528 541L528 541L480 541L480 541L432 541L432 541L384 541L384 541L336 541L336 541L288 541L288 541L240 541L240 541L192 541L192 541L144 541L144 541L96 541L96 541L48 541L48 541L0 541Z" fill="#131219"></path></svg>