<svg id="visual" viewBox="0 0 900 450" width="900" height="450" xmlns="http://www.w3.org/2000/svg" xmlns:xlink="http://www.w3.org/1999/xlink" version="1.1"><rect x="0" y="0" width="900" height="450" fill="#121117"></rect><path d="M0 164L45 164L45 161L90 161L90 129L135 129L135 203L180 203L180 163L225 163L225 126L270 126L270 183L315 183L315 172L360 172L360 165L405 165L405 164L450 164L450 188L495 188L495 188L540 188L540 192L585 192L585 152L630 152L630 121L675 121L675 164L720 164L720 167L765 167L765 150L810 150L810 150L855 150L855 170L900 170L900 142L900 451L900 451L855 451L855 451L810 451L810 451L765 451L765 451L720 451L720 451L675 451L675 451L630 451L630 451L585 451L585 451L540 451L540 451L495 451L495 451L450 451L450 451L405 451L405 451L360 451L360 451L315 451L315 451L270 451L270 451L225 451L225 451L180 451L180 451L135 451L135 451L90 451L90 451L45 451L45 451L0 451Z" fill="#24232c"></path><path d="M0 232L45 232L45 151L90 151L90 187L135 187L135 229L180 229L180 231L225 231L225 184L270 184L270 169L315 169L315 220L360 220L360 156L405 156L405 193L450 193L450 178L495 178L495 190L540 190L540 196L585 196L585 228L630 228L630 154L675 154L675 196L720 196L720 181L765 181L765 194L810 194L810 201L855 201L855 209L900 209L900 216L900 451L900 451L855 451L855 451L810 451L810 451L765 451L765 451L720 451L720 451L675 451L675 451L630 451L630 451L585 451L585 451L540 451L540 451L495 451L495 451L450 451L450 451L405 451L405 451L360 451L360 451L315 451L315 451L270 451L270 451L225 451L225 451L180 451L180 451L135 451L135 451L90 451L90 451L45 451L45 451L0 451Z" fill="#22212a"></path><path d="M0 229L45 229L45 225L90 225L90 227L135 227L135 237L180 237L180 257L225 257L225 206L270 206L270 230L315 230L315 193L360 193L360 193L405 193L405 178L450 178L450 243L495 243L495 179L540 179L540 244L585 244L585 242L630 242L630 181L675 181L675 240L720 240L720 225L765 225L765 201L810 201L810 199L855 199L855 239L900 239L900 245L900 451L900 451L855 451L855 451L810 451L810 451L765 451L765 451L720 451L720 451L675 451L675 451L630 451L630 451L585 451L585 451L540 451L540 451L495 451L495 451L450 451L450 451L405 451L405 451L360 451L360 451L315 451L315 451L270 451L270 451L225 451L225 451L180 451L180 451L135 451L135 451L90 451L90 451L45 451L45 451L0 451Z" fill="#202028"></path><path d="M0 248L45 248L45 270L90 270L90 269L135 269L135 256L180 256L180 237L225 237L225 277L270 277L270 230L315 230L315 263L360 263L360 223L405 223L405 235L450 235L450 242L495 242L495 240L540 240L540 263L585 263L585 218L630 218L630 213L675 213L675 269L720 269L720 271L765 271L765 215L810 215L810 240L855 240L855 267L900 267L900 236L900 451L900 451L855 451L855 451L810 451L810 451L765 451L765 451L720 451L720 451L675 451L675 451L630 451L630 451L585 451L585 451L540 451L540 451L495 451L495 451L450 451L450 451L405 451L405 451L360 451L360 451L315 451L315 451L270 451L270 451L225 451L225 451L180 451L180 451L135 451L135 451L90 451L90 451L45 451L45 451L0 451Z" fill="#1f1e26"></path><path d="M0 266L45 266L45 292L90 292L90 289L135 289L135 255L180 255L180 244L225 244L225 260L270 260L270 231L315 231L315 257L360 257L360 278L405 278L405 282L450 282L450 284L495 284L495 256L540 256L540 272L585 272L585 257L630 257L630 234L675 234L675 274L720 274L720 231L765 231L765 297L810 297L810 262L855 262L855 283L900 283L900 280L900 451L900 451L855 451L855 451L810 451L810 451L765 451L765 451L720 451L720 451L675 451L675 451L630 451L630 451L585 451L585 451L540 451L540 451L495 451L495 451L450 451L450 451L405 451L405 451L360 451L360 451L315 451L315 451L270 451L270 451L225 451L225 451L180 451L180 451L135 451L135 451L90 451L90 451L45 451L45 451L0 451Z" fill="#1d1d24"></path><path d="M0 282L45 282L45 280L90 280L90 263L135 263L135 317L180 317L180 301L225 301L225 284L270 284L270 312L315 312L315 280L360 280L360 272L405 272L405 316L450 316L450 265L495 265L495 311L540 311L540 260L585 260L585 313L630 313L630 279L675 279L675 303L720 303L720 264L765 264L765 273L810 273L810 279L855 279L855 289L900 289L900 273L900 451L900 451L855 451L855 451L810 451L810 451L765 451L765 451L720 451L720 451L675 451L675 451L630 451L630 451L585 451L585 451L540 451L540 451L495 451L495 451L450 451L450 451L405 451L405 451L360 451L360 451L315 451L315 451L270 451L270 451L225 451L225 451L180 451L180 451L135 451L135 451L90 451L90 451L45 451L45 451L0 451Z" fill="#1b1b22"></path><path d="M0 320L45 320L45 324L90 324L90 337L135 337L135 303L180 303L180 304L225 304L225 310L270 310L270 294L315 294L315 317L360 317L360 289L405 289L405 335L450 335L450 329L495 329L495 318L540 318L540 331L585 331L585 299L630 299L630 288L675 288L675 327L720 327L720 303L765 303L765 332L810 332L810 339L855 339L855 294L900 294L900 287L900 451L900 451L855 451L855 451L810 451L810 451L765 451L765 451L720 451L720 451L675 451L675 451L630 451L630 451L585 451L585 451L540 451L540 451L495 451L495 451L450 451L450 451L405 451L405 451L360 451L360 451L315 451L315 451L270 451L270 451L225 451L225 451L180 451L180 451L135 451L135 451L90 451L90 451L45 451L45 451L0 451Z" fill="#191920"></path><path d="M0 321L45 321L45 345L90 345L90 341L135 341L135 340L180 340L180 331L225 331L225 348L270 348L270 352L315 352L315 354L360 354L360 346L405 346L405 338L450 338L450 360L495 360L495 335L540 335L540 345L585 345L585 345L630 345L630 338L675 338L675 352L720 352L720 356L765 356L765 345L810 345L810 326L855 326L855 358L900 358L900 352L900 451L900 451L855 451L855 451L810 451L810 451L765 451L765 451L720 451L720 451L675 451L675 451L630 451L630 451L585 451L585 451L540 451L540 451L495 451L495 451L450 451L450 451L405 451L405 451L360 451L360 451L315 451L315 451L270 451L270 451L225 451L225 451L180 451L180 451L135 451L135 451L90 451L90 451L45 451L45 451L0 451Z" fill="#18181e"></path><path d="M0 369L45 369L45 353L90 353L90 378L135 378L135 353L180 353L180 381L225 381L225 357L270 357L270 370L315 370L315 357L360 357L360 362L405 362L405 356L450 356L450 375L495 375L495 375L540 375L540 373L585 373L585 353L630 353L630 344L675 344L675 363L720 363L720 344L765 344L765 344L810 344L810 358L855 358L855 353L900 353L900 355L900 451L900 451L855 451L855 451L810 451L810 451L765 451L765 451L720 451L720 451L675 451L675 451L630 451L630 451L585 451L585 451L540 451L540 451L495 451L495 451L450 451L450 451L405 451L405 451L360 451L360 451L315 451L315 451L270 451L270 451L225 451L225 451L180 451L180 451L135 451L135 451L90 451L90 451L45 451L45 451L0 451Z" fill="#16161d"></path><path d="M0 397L45 397L45 378L90 378L90 390L135 390L135 400L180 400L180 398L225 398L225 399L270 399L270 384L315 384L315 374L360 374L360 377L405 377L405 387L450 387L450 392L495 392L495 400L540 400L540 395L585 395L585 397L630 397L630 394L675 394L675 376L720 376L720 383L765 383L765 398L810 398L810 398L855 398L855 391L900 391L900 389L900 451L900 451L855 451L855 451L810 451L810 451L765 451L765 451L720 451L720 451L675 451L675 451L630 451L630 451L585 451L585 451L540 451L540 451L495 451L495 451L450 451L450 451L405 451L405 451L360 451L360 451L315 451L315 451L270 451L270 451L225 451L225 451L180 451L180 451L135 451L135 451L90 451L90 451L45 451L45 451L0 451Z" fill="#15141b"></path><path d="M0 404L45 404L45 404L90 404L90 410L135 410L135 414L180 414L180 403L225 403L225 410L270 410L270 402L315 402L315 407L360 407L360 407L405 407L405 402L450 402L450 412L495 412L495 407L540 407L540 405L585 405L585 421L630 421L630 417L675 417L675 411L720 411L720 416L765 416L765 420L810 420L810 408L855 408L855 419L900 419L900 416L900 451L900 451L855 451L855 451L810 451L810 451L765 451L765 451L720 451L720 451L675 451L675 451L630 451L630 451L585 451L585 451L540 451L540 451L495 451L495 451L450 451L450 451L405 451L405 451L360 451L360 451L315 451L315 451L270 451L270 451L225 451L225 451L180 451L180 451L135 451L135 451L90 451L90 451L45 451L45 451L0 451Z" fill="#131219"></path></svg>