<svg id="visual" viewBox="0 0 900 450" width="900" height="450" xmlns="http://www.w3.org/2000/svg" xmlns:xlink="http://www.w3.org/1999/xlink" version="1.1"><rect x="0" y="0" width="900" height="450" fill="#121117"></rect><path d="M0 306L39 306L39 357L78 357L78 323L117 323L117 305L157 305L157 344L196 344L196 316L235 316L235 345L274 345L274 332L313 332L313 360L352 360L352 308L391 308L391 338L430 338L430 350L470 350L470 347L509 347L509 345L548 345L548 354L587 354L587 339L626 339L626 351L665 351L665 348L704 348L704 306L743 306L743 330L783 330L783 364L822 364L822 346L861 346L861 352L900 352L900 316L900 451L900 451L861 451L861 451L822 451L822 451L783 451L783 451L743 451L743 451L704 451L704 451L665 451L665 451L626 451L626 451L587 451L587 451L548 451L548 451L509 451L509 451L470 451L470 451L430 451L430 451L391 451L391 451L352 451L352 451L313 451L313 451L274 451L274 451L235 451L235 451L196 451L196 451L157 451L157 451L117 451L117 451L78 451L78 451L39 451L39 451L0 451Z" fill="#24232c"></path><path d="M0 350L39 350L39 376L78 376L78 357L117 357L117 330L157 330L157 339L196 339L196 324L235 324L235 370L274 370L274 359L313 359L313 332L352 332L352 320L391 320L391 339L430 339L430 365L470 365L470 371L509 371L509 364L548 364L548 373L587 373L587 368L626 368L626 326L665 326L665 321L704 321L704 378L743 378L743 347L783 347L783 332L822 332L822 375L861 375L861 343L900 343L900 350L900 451L900 451L861 451L861 451L822 451L822 451L783 451L783 451L743 451L743 451L704 451L704 451L665 451L665 451L626 451L626 451L587 451L587 451L548 451L548 451L509 451L509 451L470 451L470 451L430 451L430 451L391 451L391 451L352 451L352 451L313 451L313 451L274 451L274 451L235 451L235 451L196 451L196 451L157 451L157 451L117 451L117 451L78 451L78 451L39 451L39 451L0 451Z" fill="#212129"></path><path d="M0 384L39 384L39 388L78 388L78 380L117 380L117 373L157 373L157 384L196 384L196 339L235 339L235 350L274 350L274 350L313 350L313 365L352 365L352 381L391 381L391 350L430 350L430 372L470 372L470 340L509 340L509 367L548 367L548 337L587 337L587 364L626 364L626 342L665 342L665 338L704 338L704 348L743 348L743 380L783 380L783 344L822 344L822 367L861 367L861 382L900 382L900 374L900 451L900 451L861 451L861 451L822 451L822 451L783 451L783 451L743 451L743 451L704 451L704 451L665 451L665 451L626 451L626 451L587 451L587 451L548 451L548 451L509 451L509 451L470 451L470 451L430 451L430 451L391 451L391 451L352 451L352 451L313 451L313 451L274 451L274 451L235 451L235 451L196 451L196 451L157 451L157 451L117 451L117 451L78 451L78 451L39 451L39 451L0 451Z" fill="#1f1e26"></path><path d="M0 352L39 352L39 355L78 355L78 354L117 354L117 389L157 389L157 368L196 368L196 369L235 369L235 386L274 386L274 382L313 382L313 369L352 369L352 374L391 374L391 361L430 361L430 360L470 360L470 379L509 379L509 392L548 392L548 394L587 394L587 392L626 392L626 396L665 396L665 395L704 395L704 367L743 367L743 395L783 395L783 357L822 357L822 376L861 376L861 373L900 373L900 389L900 451L900 451L861 451L861 451L822 451L822 451L783 451L783 451L743 451L743 451L704 451L704 451L665 451L665 451L626 451L626 451L587 451L587 451L548 451L548 451L509 451L509 451L470 451L470 451L430 451L430 451L391 451L391 451L352 451L352 451L313 451L313 451L274 451L274 451L235 451L235 451L196 451L196 451L157 451L157 451L117 451L117 451L78 451L78 451L39 451L39 451L0 451Z" fill="#1c1c23"></path><path d="M0 389L39 389L39 378L78 378L78 384L117 384L117 380L157 380L157 376L196 376L196 397L235 397L235 390L274 390L274 388L313 388L313 393L352 393L352 378L391 378L391 393L430 393L430 384L470 384L470 374L509 374L509 376L548 376L548 369L587 369L587 396L626 396L626 368L665 368L665 391L704 391L704 372L743 372L743 374L783 374L783 375L822 375L822 371L861 371L861 397L900 397L900 394L900 451L900 451L861 451L861 451L822 451L822 451L783 451L783 451L743 451L743 451L704 451L704 451L665 451L665 451L626 451L626 451L587 451L587 451L548 451L548 451L509 451L509 451L470 451L470 451L430 451L430 451L391 451L391 451L352 451L352 451L313 451L313 451L274 451L274 451L235 451L235 451L196 451L196 451L157 451L157 451L117 451L117 451L78 451L78 451L39 451L39 451L0 451Z" fill="#1a1a21"></path><path d="M0 411L39 411L39 408L78 408L78 407L117 407L117 407L157 407L157 413L196 413L196 414L235 414L235 394L274 394L274 399L313 399L313 403L352 403L352 406L391 406L391 398L430 398L430 412L470 412L470 406L509 406L509 389L548 389L548 384L587 384L587 410L626 410L626 404L665 404L665 411L704 411L704 388L743 388L743 388L783 388L783 392L822 392L822 390L861 390L861 389L900 389L900 395L900 451L900 451L861 451L861 451L822 451L822 451L783 451L783 451L743 451L743 451L704 451L704 451L665 451L665 451L626 451L626 451L587 451L587 451L548 451L548 451L509 451L509 451L470 451L470 451L430 451L430 451L391 451L391 451L352 451L352 451L313 451L313 451L274 451L274 451L235 451L235 451L196 451L196 451L157 451L157 451L117 451L117 451L78 451L78 451L39 451L39 451L0 451Z" fill="#18171e"></path><path d="M0 405L39 405L39 406L78 406L78 402L117 402L117 422L157 422L157 406L196 406L196 420L235 420L235 420L274 420L274 415L313 415L313 416L352 416L352 407L391 407L391 409L430 409L430 407L470 407L470 413L509 413L509 421L548 421L548 409L587 409L587 401L626 401L626 400L665 400L665 411L704 411L704 422L743 422L743 408L783 408L783 415L822 415L822 409L861 409L861 413L900 413L900 407L900 451L900 451L861 451L861 451L822 451L822 451L783 451L783 451L743 451L743 451L704 451L704 451L665 451L665 451L626 451L626 451L587 451L587 451L548 451L548 451L509 451L509 451L470 451L470 451L430 451L430 451L391 451L391 451L352 451L352 451L313 451L313 451L274 451L274 451L235 451L235 451L196 451L196 451L157 451L157 451L117 451L117 451L78 451L78 451L39 451L39 451L0 451Z" fill="#15151c"></path><path d="M0 431L39 431L39 424L78 424L78 423L117 423L117 422L157 422L157 431L196 431L196 419L235 419L235 429L274 429L274 424L313 424L313 417L352 417L352 421L391 421L391 430L430 430L430 419L470 419L470 430L509 430L509 418L548 418L548 427L587 427L587 418L626 418L626 427L665 427L665 422L704 422L704 431L743 431L743 431L783 431L783 426L822 426L822 419L861 419L861 431L900 431L900 424L900 451L900 451L861 451L861 451L822 451L822 451L783 451L783 451L743 451L743 451L704 451L704 451L665 451L665 451L626 451L626 451L587 451L587 451L548 451L548 451L509 451L509 451L470 451L470 451L430 451L430 451L391 451L391 451L352 451L352 451L313 451L313 451L274 451L274 451L235 451L235 451L196 451L196 451L157 451L157 451L117 451L117 451L78 451L78 451L39 451L39 451L0 451Z" fill="#131219"></path></svg>