<svg id="visual" viewBox="0 0 675 900" width="675" height="900" xmlns="http://www.w3.org/2000/svg" xmlns:xlink="http://www.w3.org/1999/xlink" version="1.1"><rect x="0" y="0" width="675" height="900" fill="#121117"></rect><path d="M0 651L29 651L29 691L59 691L59 631L88 631L88 619L117 619L117 728L147 728L147 681L176 681L176 709L205 709L205 670L235 670L235 716L264 716L264 721L293 721L293 638L323 638L323 682L352 682L352 696L382 696L382 638L411 638L411 631L440 631L440 709L470 709L470 650L499 650L499 688L528 688L528 710L558 710L558 692L587 692L587 737L616 737L616 612L646 612L646 653L675 653L675 617L675 901L675 901L646 901L646 901L616 901L616 901L587 901L587 901L558 901L558 901L528 901L528 901L499 901L499 901L470 901L470 901L440 901L440 901L411 901L411 901L382 901L382 901L352 901L352 901L323 901L323 901L293 901L293 901L264 901L264 901L235 901L235 901L205 901L205 901L176 901L176 901L147 901L147 901L117 901L117 901L88 901L88 901L59 901L59 901L29 901L29 901L0 901Z" fill="#24232c"></path><path d="M0 727L29 727L29 680L59 680L59 672L88 672L88 684L117 684L117 640L147 640L147 708L176 708L176 664L205 664L205 692L235 692L235 743L264 743L264 648L293 648L293 661L323 661L323 668L352 668L352 738L382 738L382 662L411 662L411 676L440 676L440 757L470 757L470 717L499 717L499 704L528 704L528 746L558 746L558 678L587 678L587 676L616 676L616 685L646 685L646 663L675 663L675 753L675 901L675 901L646 901L646 901L616 901L616 901L587 901L587 901L558 901L558 901L528 901L528 901L499 901L499 901L470 901L470 901L440 901L440 901L411 901L411 901L382 901L382 901L352 901L352 901L323 901L323 901L293 901L293 901L264 901L264 901L235 901L235 901L205 901L205 901L176 901L176 901L147 901L147 901L117 901L117 901L88 901L88 901L59 901L59 901L29 901L29 901L0 901Z" fill="#212129"></path><path d="M0 674L29 674L29 687L59 687L59 731L88 731L88 743L117 743L117 672L147 672L147 754L176 754L176 748L205 748L205 732L235 732L235 705L264 705L264 686L293 686L293 716L323 716L323 764L352 764L352 720L382 720L382 675L411 675L411 715L440 715L440 716L470 716L470 687L499 687L499 753L528 753L528 714L558 714L558 733L587 733L587 771L616 771L616 693L646 693L646 696L675 696L675 701L675 901L675 901L646 901L646 901L616 901L616 901L587 901L587 901L558 901L558 901L528 901L528 901L499 901L499 901L470 901L470 901L440 901L440 901L411 901L411 901L382 901L382 901L352 901L352 901L323 901L323 901L293 901L293 901L264 901L264 901L235 901L235 901L205 901L205 901L176 901L176 901L147 901L147 901L117 901L117 901L88 901L88 901L59 901L59 901L29 901L29 901L0 901Z" fill="#1f1e26"></path><path d="M0 746L29 746L29 769L59 769L59 782L88 782L88 717L117 717L117 708L147 708L147 789L176 789L176 737L205 737L205 713L235 713L235 736L264 736L264 751L293 751L293 789L323 789L323 791L352 791L352 742L382 742L382 759L411 759L411 747L440 747L440 747L470 747L470 718L499 718L499 738L528 738L528 775L558 775L558 750L587 750L587 745L616 745L616 714L646 714L646 707L675 707L675 760L675 901L675 901L646 901L646 901L616 901L616 901L587 901L587 901L558 901L558 901L528 901L528 901L499 901L499 901L470 901L470 901L440 901L440 901L411 901L411 901L382 901L382 901L352 901L352 901L323 901L323 901L293 901L293 901L264 901L264 901L235 901L235 901L205 901L205 901L176 901L176 901L147 901L147 901L117 901L117 901L88 901L88 901L59 901L59 901L29 901L29 901L0 901Z" fill="#1c1c23"></path><path d="M0 785L29 785L29 753L59 753L59 800L88 800L88 805L117 805L117 770L147 770L147 809L176 809L176 764L205 764L205 810L235 810L235 752L264 752L264 803L293 803L293 804L323 804L323 778L352 778L352 807L382 807L382 755L411 755L411 787L440 787L440 787L470 787L470 801L499 801L499 792L528 792L528 760L558 760L558 793L587 793L587 779L616 779L616 748L646 748L646 801L675 801L675 748L675 901L675 901L646 901L646 901L616 901L616 901L587 901L587 901L558 901L558 901L528 901L528 901L499 901L499 901L470 901L470 901L440 901L440 901L411 901L411 901L382 901L382 901L352 901L352 901L323 901L323 901L293 901L293 901L264 901L264 901L235 901L235 901L205 901L205 901L176 901L176 901L147 901L147 901L117 901L117 901L88 901L88 901L59 901L59 901L29 901L29 901L0 901Z" fill="#1a1a21"></path><path d="M0 799L29 799L29 803L59 803L59 803L88 803L88 819L117 819L117 776L147 776L147 788L176 788L176 784L205 784L205 790L235 790L235 797L264 797L264 811L293 811L293 791L323 791L323 826L352 826L352 806L382 806L382 812L411 812L411 800L440 800L440 781L470 781L470 825L499 825L499 802L528 802L528 789L558 789L558 797L587 797L587 787L616 787L616 797L646 797L646 815L675 815L675 769L675 901L675 901L646 901L646 901L616 901L616 901L587 901L587 901L558 901L558 901L528 901L528 901L499 901L499 901L470 901L470 901L440 901L440 901L411 901L411 901L382 901L382 901L352 901L352 901L323 901L323 901L293 901L293 901L264 901L264 901L235 901L235 901L205 901L205 901L176 901L176 901L147 901L147 901L117 901L117 901L88 901L88 901L59 901L59 901L29 901L29 901L0 901Z" fill="#18171e"></path><path d="M0 811L29 811L29 829L59 829L59 823L88 823L88 811L117 811L117 822L147 822L147 837L176 837L176 825L205 825L205 814L235 814L235 806L264 806L264 827L293 827L293 807L323 807L323 822L352 822L352 843L382 843L382 826L411 826L411 819L440 819L440 824L470 824L470 809L499 809L499 845L528 845L528 845L558 845L558 818L587 818L587 841L616 841L616 833L646 833L646 843L675 843L675 836L675 901L675 901L646 901L646 901L616 901L616 901L587 901L587 901L558 901L558 901L528 901L528 901L499 901L499 901L470 901L470 901L440 901L440 901L411 901L411 901L382 901L382 901L352 901L352 901L323 901L323 901L293 901L293 901L264 901L264 901L235 901L235 901L205 901L205 901L176 901L176 901L147 901L147 901L117 901L117 901L88 901L88 901L59 901L59 901L29 901L29 901L0 901Z" fill="#15151c"></path><path d="M0 841L29 841L29 860L59 860L59 854L88 854L88 859L117 859L117 862L147 862L147 834L176 834L176 841L205 841L205 863L235 863L235 843L264 843L264 835L293 835L293 843L323 843L323 837L352 837L352 859L382 859L382 854L411 854L411 843L440 843L440 858L470 858L470 838L499 838L499 848L528 848L528 846L558 846L558 838L587 838L587 858L616 858L616 839L646 839L646 854L675 854L675 843L675 901L675 901L646 901L646 901L616 901L616 901L587 901L587 901L558 901L558 901L528 901L528 901L499 901L499 901L470 901L470 901L440 901L440 901L411 901L411 901L382 901L382 901L352 901L352 901L323 901L323 901L293 901L293 901L264 901L264 901L235 901L235 901L205 901L205 901L176 901L176 901L147 901L147 901L117 901L117 901L88 901L88 901L59 901L59 901L29 901L29 901L0 901Z" fill="#131219"></path></svg>