<svg id="visual" viewBox="0 0 675 900" width="675" height="900" xmlns="http://www.w3.org/2000/svg" xmlns:xlink="http://www.w3.org/1999/xlink" version="1.1"><rect x="0" y="0" width="675" height="900" fill="#121117"></rect><path d="M0 329L34 329L34 323L68 323L68 259L101 259L101 407L135 407L135 327L169 327L169 252L203 252L203 366L236 366L236 345L270 345L270 330L304 330L304 330L338 330L338 377L371 377L371 377L405 377L405 385L439 385L439 306L472 306L472 242L506 242L506 328L540 328L540 334L574 334L574 302L608 302L608 301L641 301L641 341L675 341L675 285L675 901L675 901L641 901L641 901L608 901L608 901L574 901L574 901L540 901L540 901L506 901L506 901L472 901L472 901L439 901L439 901L405 901L405 901L371 901L371 901L338 901L338 901L304 901L304 901L270 901L270 901L236 901L236 901L203 901L203 901L169 901L169 901L135 901L135 901L101 901L101 901L68 901L68 901L34 901L34 901L0 901Z" fill="#24232c"></path><path d="M0 465L34 465L34 302L68 302L68 375L101 375L101 459L135 459L135 464L169 464L169 368L203 368L203 338L236 338L236 441L270 441L270 314L304 314L304 387L338 387L338 356L371 356L371 382L405 382L405 393L439 393L439 458L472 458L472 308L506 308L506 393L540 393L540 364L574 364L574 390L608 390L608 403L641 403L641 420L675 420L675 432L675 901L675 901L641 901L641 901L608 901L608 901L574 901L574 901L540 901L540 901L506 901L506 901L472 901L472 901L439 901L439 901L405 901L405 901L371 901L371 901L338 901L338 901L304 901L304 901L270 901L270 901L236 901L236 901L203 901L203 901L169 901L169 901L135 901L135 901L101 901L101 901L68 901L68 901L34 901L34 901L0 901Z" fill="#22212a"></path><path d="M0 458L34 458L34 452L68 452L68 454L101 454L101 475L135 475L135 515L169 515L169 413L203 413L203 462L236 462L236 387L270 387L270 387L304 387L304 356L338 356L338 488L371 488L371 358L405 358L405 489L439 489L439 486L472 486L472 363L506 363L506 480L540 480L540 452L574 452L574 403L608 403L608 399L641 399L641 479L675 479L675 492L675 901L675 901L641 901L641 901L608 901L608 901L574 901L574 901L540 901L540 901L506 901L506 901L472 901L472 901L439 901L439 901L405 901L405 901L371 901L371 901L338 901L338 901L304 901L304 901L270 901L270 901L236 901L236 901L203 901L203 901L169 901L169 901L135 901L135 901L101 901L101 901L68 901L68 901L34 901L34 901L0 901Z" fill="#202028"></path><path d="M0 497L34 497L34 541L68 541L68 538L101 538L101 514L135 514L135 476L169 476L169 554L203 554L203 460L236 460L236 527L270 527L270 446L304 446L304 470L338 470L338 486L371 486L371 481L405 481L405 527L439 527L439 437L472 437L472 426L506 426L506 539L540 539L540 542L574 542L574 431L608 431L608 482L641 482L641 535L675 535L675 474L675 901L675 901L641 901L641 901L608 901L608 901L574 901L574 901L540 901L540 901L506 901L506 901L472 901L472 901L439 901L439 901L405 901L405 901L371 901L371 901L338 901L338 901L304 901L304 901L270 901L270 901L236 901L236 901L203 901L203 901L169 901L169 901L135 901L135 901L101 901L101 901L68 901L68 901L34 901L34 901L0 901Z" fill="#1f1e26"></path><path d="M0 532L34 532L34 585L68 585L68 580L101 580L101 511L135 511L135 490L169 490L169 521L203 521L203 463L236 463L236 516L270 516L270 556L304 556L304 565L338 565L338 568L371 568L371 514L405 514L405 545L439 545L439 516L472 516L472 469L506 469L506 548L540 548L540 464L574 464L574 595L608 595L608 524L641 524L641 567L675 567L675 560L675 901L675 901L641 901L641 901L608 901L608 901L574 901L574 901L540 901L540 901L506 901L506 901L472 901L472 901L439 901L439 901L405 901L405 901L371 901L371 901L338 901L338 901L304 901L304 901L270 901L270 901L236 901L236 901L203 901L203 901L169 901L169 901L135 901L135 901L101 901L101 901L68 901L68 901L34 901L34 901L0 901Z" fill="#1d1d24"></path><path d="M0 564L34 564L34 560L68 560L68 528L101 528L101 636L135 636L135 603L169 603L169 569L203 569L203 625L236 625L236 562L270 562L270 546L304 546L304 633L338 633L338 532L371 532L371 622L405 622L405 520L439 520L439 626L472 626L472 560L506 560L506 608L540 608L540 528L574 528L574 548L608 548L608 559L641 559L641 579L675 579L675 548L675 901L675 901L641 901L641 901L608 901L608 901L574 901L574 901L540 901L540 901L506 901L506 901L472 901L472 901L439 901L439 901L405 901L405 901L371 901L371 901L338 901L338 901L304 901L304 901L270 901L270 901L236 901L236 901L203 901L203 901L169 901L169 901L135 901L135 901L101 901L101 901L68 901L68 901L34 901L34 901L0 901Z" fill="#1b1b22"></path><path d="M0 640L34 640L34 648L68 648L68 675L101 675L101 608L135 608L135 609L169 609L169 622L203 622L203 589L236 589L236 635L270 635L270 579L304 579L304 671L338 671L338 659L371 659L371 637L405 637L405 664L439 664L439 598L472 598L472 578L506 578L506 655L540 655L540 607L574 607L574 664L608 664L608 679L641 679L641 590L675 590L675 576L675 901L675 901L641 901L641 901L608 901L608 901L574 901L574 901L540 901L540 901L506 901L506 901L472 901L472 901L439 901L439 901L405 901L405 901L371 901L371 901L338 901L338 901L304 901L304 901L270 901L270 901L236 901L236 901L203 901L203 901L169 901L169 901L135 901L135 901L101 901L101 901L68 901L68 901L34 901L34 901L0 901Z" fill="#191920"></path><path d="M0 643L34 643L34 690L68 690L68 683L101 683L101 681L135 681L135 664L169 664L169 696L203 696L203 704L236 704L236 709L270 709L270 694L304 694L304 676L338 676L338 722L371 722L371 670L405 670L405 690L439 690L439 692L472 692L472 676L506 676L506 705L540 705L540 713L574 713L574 691L608 691L608 654L641 654L641 717L675 717L675 706L675 901L675 901L641 901L641 901L608 901L608 901L574 901L574 901L540 901L540 901L506 901L506 901L472 901L472 901L439 901L439 901L405 901L405 901L371 901L371 901L338 901L338 901L304 901L304 901L270 901L270 901L236 901L236 901L203 901L203 901L169 901L169 901L135 901L135 901L101 901L101 901L68 901L68 901L34 901L34 901L0 901Z" fill="#18181e"></path><path d="M0 739L34 739L34 706L68 706L68 758L101 758L101 706L135 706L135 764L169 764L169 715L203 715L203 742L236 742L236 714L270 714L270 726L304 726L304 713L338 713L338 751L371 751L371 752L405 752L405 747L439 747L439 707L472 707L472 688L506 688L506 727L540 727L540 690L574 690L574 689L608 689L608 717L641 717L641 706L675 706L675 711L675 901L675 901L641 901L641 901L608 901L608 901L574 901L574 901L540 901L540 901L506 901L506 901L472 901L472 901L439 901L439 901L405 901L405 901L371 901L371 901L338 901L338 901L304 901L304 901L270 901L270 901L236 901L236 901L203 901L203 901L169 901L169 901L135 901L135 901L101 901L101 901L68 901L68 901L34 901L34 901L0 901Z" fill="#16161d"></path><path d="M0 794L34 794L34 757L68 757L68 781L101 781L101 802L135 802L135 796L169 796L169 798L203 798L203 769L236 769L236 750L270 750L270 755L304 755L304 776L338 776L338 785L371 785L371 800L405 800L405 791L439 791L439 796L472 796L472 789L506 789L506 752L540 752L540 767L574 767L574 797L608 797L608 797L641 797L641 783L675 783L675 779L675 901L675 901L641 901L641 901L608 901L608 901L574 901L574 901L540 901L540 901L506 901L506 901L472 901L472 901L439 901L439 901L405 901L405 901L371 901L371 901L338 901L338 901L304 901L304 901L270 901L270 901L236 901L236 901L203 901L203 901L169 901L169 901L135 901L135 901L101 901L101 901L68 901L68 901L34 901L34 901L0 901Z" fill="#15141b"></path><path d="M0 808L34 808L34 809L68 809L68 822L101 822L101 829L135 829L135 807L169 807L169 821L203 821L203 806L236 806L236 815L270 815L270 814L304 814L304 806L338 806L338 826L371 826L371 816L405 816L405 812L439 812L439 843L472 843L472 835L506 835L506 824L540 824L540 833L574 833L574 841L608 841L608 816L641 816L641 838L675 838L675 832L675 901L675 901L641 901L641 901L608 901L608 901L574 901L574 901L540 901L540 901L506 901L506 901L472 901L472 901L439 901L439 901L405 901L405 901L371 901L371 901L338 901L338 901L304 901L304 901L270 901L270 901L236 901L236 901L203 901L203 901L169 901L169 901L135 901L135 901L101 901L101 901L68 901L68 901L34 901L34 901L0 901Z" fill="#131219"></path></svg>